<svg xmlns="http://www.w3.org/2000/svg" viewBox="0 0 100 102" role="img" aria-label="Harvest Deli chat"><style>.hp{animation:hdHexPulse 4.2s cubic-bezier(0.16,1,0.3,1) infinite;transform-box:fill-box;transform-origin:center}@keyframes hdHexPulse{0%{transform:scale(1);opacity:.38}70%{transform:scale(1.34);opacity:0}100%{transform:scale(1.34);opacity:0}}@media(prefers-reduced-motion:reduce){.hp{display:none}}</style><defs><linearGradient id="hdfab-gold" x1="0" y1="0" x2="1" y2="1"><stop offset="0" stop-color="#fbd57d"/><stop offset="1" stop-color="#97814c"/></linearGradient><linearGradient id="hdfab-bg" x1="0.25" y1="0" x2="0.75" y2="1"><stop offset="0" stop-color="#1f412d"/><stop offset="0.55" stop-color="#142A1D"/><stop offset="1" stop-color="#0b1710"/></linearGradient><radialGradient id="hdfab-sheen" cx="0.32" cy="0.1" r="0.95"><stop offset="0" stop-color="#FFFFFF" stop-opacity="0.13"/><stop offset="0.45" stop-color="#FFFFFF" stop-opacity="0.025"/><stop offset="1" stop-color="#FFFFFF" stop-opacity="0"/></radialGradient><clipPath id="hdfab-clip"><polygon points="86.50,47.00 68.25,78.61 31.75,78.61 13.50,47.00 31.75,15.39 68.25,15.39"/></clipPath></defs><path class="hp" d="M92,47 L71,83.37 L29,83.37 L8,47 L29,10.63 L71,10.63 Z" fill="none" stroke="#D8B86C" stroke-width="1.2"/><path d="M92,47 L71,83.37 L46,83.37 L31.5,97.5 L36,83.37 L29,83.37 L8,47 L29,10.63 L71,10.63 Z" fill="url(#hdfab-bg)" stroke="url(#hdfab-gold)" stroke-width="1.2" stroke-linejoin="round"/><path d="M92,47 L71,83.37 L46,83.37 L31.5,97.5 L36,83.37 L29,83.37 L8,47 L29,10.63 L71,10.63 Z" fill="url(#hdfab-sheen)" pointer-events="none"/><g clip-path="url(#hdfab-clip)" fill="none" stroke="#D8B86C" stroke-width="0.55" opacity="0.10"><polygon points="-5.50,-9.53 -11.00,0.00 -22.00,0.00 -27.50,-9.53 -22.00,-19.05 -11.00,-19.05"/><polygon points="-5.50,9.53 -11.00,19.05 -22.00,19.05 -27.50,9.53 -22.00,0.00 -11.00,0.00"/><polygon points="-5.50,28.58 -11.00,38.11 -22.00,38.11 -27.50,28.58 -22.00,19.05 -11.00,19.05"/><polygon points="-5.50,47.63 -11.00,57.16 -22.00,57.16 -27.50,47.63 -22.00,38.11 -11.00,38.11"/><polygon points="-5.50,66.68 -11.00,76.21 -22.00,76.21 -27.50,66.68 -22.00,57.16 -11.00,57.16"/><polygon points="-5.50,85.74 -11.00,95.26 -22.00,95.26 -27.50,85.74 -22.00,76.21 -11.00,76.21"/><polygon points="-5.50,104.79 -11.00,114.32 -22.00,114.32 -27.50,104.79 -22.00,95.26 -11.00,95.26"/><polygon points="-5.50,123.84 -11.00,133.37 -22.00,133.37 -27.50,123.84 -22.00,114.32 -11.00,114.32"/><polygon points="11.00,-19.05 5.50,-9.53 -5.50,-9.53 -11.00,-19.05 -5.50,-28.58 5.50,-28.58"/><polygon points="11.00,0.00 5.50,9.53 -5.50,9.53 -11.00,0.00 -5.50,-9.53 5.50,-9.53"/><polygon points="11.00,19.05 5.50,28.58 -5.50,28.58 -11.00,19.05 -5.50,9.53 5.50,9.53"/><polygon points="11.00,38.11 5.50,47.63 -5.50,47.63 -11.00,38.11 -5.50,28.58 5.50,28.58"/><polygon points="11.00,57.16 5.50,66.68 -5.50,66.68 -11.00,57.16 -5.50,47.63 5.50,47.63"/><polygon points="11.00,76.21 5.50,85.74 -5.50,85.74 -11.00,76.21 -5.50,66.68 5.50,66.68"/><polygon points="11.00,95.26 5.50,104.79 -5.50,104.79 -11.00,95.26 -5.50,85.74 5.50,85.74"/><polygon points="11.00,114.32 5.50,123.84 -5.50,123.84 -11.00,114.32 -5.50,104.79 5.50,104.79"/><polygon points="27.50,-9.53 22.00,0.00 11.00,0.00 5.50,-9.53 11.00,-19.05 22.00,-19.05"/><polygon points="27.50,9.53 22.00,19.05 11.00,19.05 5.50,9.53 11.00,0.00 22.00,0.00"/><polygon points="27.50,28.58 22.00,38.11 11.00,38.11 5.50,28.58 11.00,19.05 22.00,19.05"/><polygon points="27.50,47.63 22.00,57.16 11.00,57.16 5.50,47.63 11.00,38.11 22.00,38.11"/><polygon points="27.50,66.68 22.00,76.21 11.00,76.21 5.50,66.68 11.00,57.16 22.00,57.16"/><polygon points="27.50,85.74 22.00,95.26 11.00,95.26 5.50,85.74 11.00,76.21 22.00,76.21"/><polygon points="27.50,104.79 22.00,114.32 11.00,114.32 5.50,104.79 11.00,95.26 22.00,95.26"/><polygon points="27.50,123.84 22.00,133.37 11.00,133.37 5.50,123.84 11.00,114.32 22.00,114.32"/><polygon points="44.00,-19.05 38.50,-9.53 27.50,-9.53 22.00,-19.05 27.50,-28.58 38.50,-28.58"/><polygon points="44.00,0.00 38.50,9.53 27.50,9.53 22.00,0.00 27.50,-9.53 38.50,-9.53"/><polygon points="44.00,19.05 38.50,28.58 27.50,28.58 22.00,19.05 27.50,9.53 38.50,9.53"/><polygon points="44.00,38.11 38.50,47.63 27.50,47.63 22.00,38.11 27.50,28.58 38.50,28.58"/><polygon points="44.00,57.16 38.50,66.68 27.50,66.68 22.00,57.16 27.50,47.63 38.50,47.63"/><polygon points="44.00,76.21 38.50,85.74 27.50,85.74 22.00,76.21 27.50,66.68 38.50,66.68"/><polygon points="44.00,95.26 38.50,104.79 27.50,104.79 22.00,95.26 27.50,85.74 38.50,85.74"/><polygon points="44.00,114.32 38.50,123.84 27.50,123.84 22.00,114.32 27.50,104.79 38.50,104.79"/><polygon points="60.50,-9.53 55.00,0.00 44.00,0.00 38.50,-9.53 44.00,-19.05 55.00,-19.05"/><polygon points="60.50,9.53 55.00,19.05 44.00,19.05 38.50,9.53 44.00,0.00 55.00,0.00"/><polygon points="60.50,28.58 55.00,38.11 44.00,38.11 38.50,28.58 44.00,19.05 55.00,19.05"/><polygon points="60.50,47.63 55.00,57.16 44.00,57.16 38.50,47.63 44.00,38.11 55.00,38.11"/><polygon points="60.50,66.68 55.00,76.21 44.00,76.21 38.50,66.68 44.00,57.16 55.00,57.16"/><polygon points="60.50,85.74 55.00,95.26 44.00,95.26 38.50,85.74 44.00,76.21 55.00,76.21"/><polygon points="60.50,104.79 55.00,114.32 44.00,114.32 38.50,104.79 44.00,95.26 55.00,95.26"/><polygon points="60.50,123.84 55.00,133.37 44.00,133.37 38.50,123.84 44.00,114.32 55.00,114.32"/><polygon points="77.00,-19.05 71.50,-9.53 60.50,-9.53 55.00,-19.05 60.50,-28.58 71.50,-28.58"/><polygon points="77.00,0.00 71.50,9.53 60.50,9.53 55.00,0.00 60.50,-9.53 71.50,-9.53"/><polygon points="77.00,19.05 71.50,28.58 60.50,28.58 55.00,19.05 60.50,9.53 71.50,9.53"/><polygon points="77.00,38.11 71.50,47.63 60.50,47.63 55.00,38.11 60.50,28.58 71.50,28.58"/><polygon points="77.00,57.16 71.50,66.68 60.50,66.68 55.00,57.16 60.50,47.63 71.50,47.63"/><polygon points="77.00,76.21 71.50,85.74 60.50,85.74 55.00,76.21 60.50,66.68 71.50,66.68"/><polygon points="77.00,95.26 71.50,104.79 60.50,104.79 55.00,95.26 60.50,85.74 71.50,85.74"/><polygon points="77.00,114.32 71.50,123.84 60.50,123.84 55.00,114.32 60.50,104.79 71.50,104.79"/><polygon points="93.50,-9.53 88.00,0.00 77.00,0.00 71.50,-9.53 77.00,-19.05 88.00,-19.05"/><polygon points="93.50,9.53 88.00,19.05 77.00,19.05 71.50,9.53 77.00,0.00 88.00,0.00"/><polygon points="93.50,28.58 88.00,38.11 77.00,38.11 71.50,28.58 77.00,19.05 88.00,19.05"/><polygon points="93.50,47.63 88.00,57.16 77.00,57.16 71.50,47.63 77.00,38.11 88.00,38.11"/><polygon points="93.50,66.68 88.00,76.21 77.00,76.21 71.50,66.68 77.00,57.16 88.00,57.16"/><polygon points="93.50,85.74 88.00,95.26 77.00,95.26 71.50,85.74 77.00,76.21 88.00,76.21"/><polygon points="93.50,104.79 88.00,114.32 77.00,114.32 71.50,104.79 77.00,95.26 88.00,95.26"/><polygon points="93.50,123.84 88.00,133.37 77.00,133.37 71.50,123.84 77.00,114.32 88.00,114.32"/><polygon points="110.00,-19.05 104.50,-9.53 93.50,-9.53 88.00,-19.05 93.50,-28.58 104.50,-28.58"/><polygon points="110.00,0.00 104.50,9.53 93.50,9.53 88.00,0.00 93.50,-9.53 104.50,-9.53"/><polygon points="110.00,19.05 104.50,28.58 93.50,28.58 88.00,19.05 93.50,9.53 104.50,9.53"/><polygon points="110.00,38.11 104.50,47.63 93.50,47.63 88.00,38.11 93.50,28.58 104.50,28.58"/><polygon points="110.00,57.16 104.50,66.68 93.50,66.68 88.00,57.16 93.50,47.63 104.50,47.63"/><polygon points="110.00,76.21 104.50,85.74 93.50,85.74 88.00,76.21 93.50,66.68 104.50,66.68"/><polygon points="110.00,95.26 104.50,104.79 93.50,104.79 88.00,95.26 93.50,85.74 104.50,85.74"/><polygon points="110.00,114.32 104.50,123.84 93.50,123.84 88.00,114.32 93.50,104.79 104.50,104.79"/><polygon points="126.50,-9.53 121.00,0.00 110.00,0.00 104.50,-9.53 110.00,-19.05 121.00,-19.05"/><polygon points="126.50,9.53 121.00,19.05 110.00,19.05 104.50,9.53 110.00,0.00 121.00,0.00"/><polygon points="126.50,28.58 121.00,38.11 110.00,38.11 104.50,28.58 110.00,19.05 121.00,19.05"/><polygon points="126.50,47.63 121.00,57.16 110.00,57.16 104.50,47.63 110.00,38.11 121.00,38.11"/><polygon points="126.50,66.68 121.00,76.21 110.00,76.21 104.50,66.68 110.00,57.16 121.00,57.16"/><polygon points="126.50,85.74 121.00,95.26 110.00,95.26 104.50,85.74 110.00,76.21 121.00,76.21"/><polygon points="126.50,104.79 121.00,114.32 110.00,114.32 104.50,104.79 110.00,95.26 121.00,95.26"/><polygon points="126.50,123.84 121.00,133.37 110.00,133.37 104.50,123.84 110.00,114.32 121.00,114.32"/></g><polygon points="86.50,47.00 68.25,78.61 31.75,78.61 13.50,47.00 31.75,15.39 68.25,15.39" fill="none" stroke="#D8B86C" stroke-width="0.55" opacity="0.4"/><g><polygon points="57.62,44.00 50.00,48.40 42.38,44.00 42.38,35.20 50.00,30.80 57.62,35.20" fill="url(#hdfab-gold)"/><polygon points="50.00,57.20 42.38,61.60 34.76,57.20 34.76,48.40 42.38,44.00 50.00,48.40" fill="none" stroke="#D8B86C" stroke-width="0.9" opacity="0.9"/><polygon points="65.24,57.20 57.62,61.60 50.00,57.20 50.00,48.40 57.62,44.00 65.24,48.40" fill="none" stroke="#D8B86C" stroke-width="0.9" opacity="0.9"/></g><g><polygon points="84.95,18.80 77.50,23.10 70.05,18.80 70.05,10.20 77.50,5.90 84.95,10.20" fill="#0b1710"/><polygon points="82.87,17.60 77.50,20.70 72.13,17.60 72.13,11.40 77.50,8.30 82.87,11.40" fill="url(#hdfab-gold)"/></g></svg>